<svg width="28" height="28" viewBox="0 0 28 28" fill="none" xmlns="http://www.w3.org/2000/svg">
<path d="M13.041 3.30267C13.6733 3.16994 14.3267 3.16995 14.959 3.30267C15.6734 3.45276 16.3467 3.83564 17.6924 4.60149L20.3301 6.10247C21.704 6.88435 22.3907 7.27582 22.8906 7.8261C23.333 8.31309 23.6676 8.8883 23.8721 9.5136C24.1031 10.2203 24.1035 11.0108 24.1035 12.5917V15.4081L24.0996 16.457C24.0888 17.3792 24.0453 17.9563 23.8721 18.4863C23.6676 19.1115 23.3329 19.6868 22.8906 20.1738C22.3907 20.724 21.7039 21.1156 20.3301 21.8974L17.6924 23.3984L16.7979 23.9032C16.0074 24.341 15.4947 24.5846 14.959 24.6972L14.7207 24.7411C14.2429 24.8158 13.7561 24.8159 13.2783 24.7411L13.041 24.6972C12.5051 24.5846 11.992 24.3413 11.2012 23.9032L10.3066 23.3984L7.66992 21.8974C6.46763 21.2132 5.79087 20.8282 5.30566 20.374L5.1084 20.1738C4.66612 19.6868 4.3314 19.1115 4.12695 18.4863C3.95375 17.9563 3.91025 17.3791 3.89941 16.457L3.89648 15.4081V12.5917C3.89648 11.208 3.8959 10.4296 4.05078 9.78313L4.12695 9.5136C4.30582 8.96658 4.58426 8.45741 4.94727 8.01263L5.1084 7.8261C5.48333 7.41333 5.96346 7.0896 6.75977 6.62396L7.66992 6.10247L10.3066 4.60149C11.4845 3.93117 12.1475 3.55439 12.7734 3.37005L13.041 3.30267ZM14.5479 5.2597C14.1867 5.1839 13.8133 5.18392 13.4521 5.2597C13.1165 5.33022 12.7573 5.5081 11.2959 6.33978L8.65918 7.84075C7.16699 8.68996 6.82365 8.91235 6.58887 9.17083C6.33624 9.44902 6.14513 9.77754 6.02832 10.1347C5.91983 10.4666 5.89648 10.8749 5.89648 12.5917V15.4081C5.89649 17.1251 5.9198 17.5333 6.02832 17.8652C6.14514 18.2224 6.33621 18.5508 6.58887 18.829C6.82365 19.0875 7.16694 19.3099 8.65918 20.1591L11.2959 21.6601C12.7573 22.4918 13.1165 22.6696 13.4521 22.7402C13.8133 22.8159 14.1867 22.816 14.5479 22.7402C14.8835 22.6696 15.2421 22.4916 16.7031 21.6601L19.3408 20.1591C20.8324 19.3102 21.1754 19.0874 21.4102 18.829C21.6629 18.5508 21.8548 18.2224 21.9717 17.8652C22.0802 17.5333 22.1035 17.1251 22.1035 15.4081V12.5917C22.1035 10.8747 22.0802 10.4666 21.9717 10.1347C21.8548 9.77738 21.6629 9.44911 21.4102 9.17083C21.1754 8.91243 20.8326 8.68972 19.3408 7.84075L16.7031 6.33978C15.2421 5.50828 14.8835 5.33021 14.5479 5.2597ZM14 8.99993C16.7614 8.99993 19 11.2385 19 13.9999C19 16.7613 16.7614 18.9999 14 18.9999C11.2386 18.9999 9.00004 16.7613 9 13.9999C9 11.2385 11.2386 8.99993 14 8.99993ZM14 10.9999C12.3431 10.9999 11 12.3431 11 13.9999C11 15.6568 12.3432 16.9999 14 16.9999C15.6568 16.9999 17 15.6568 17 13.9999C17 12.3431 15.6569 10.9999 14 10.9999Z" fill="black"/>
</svg>
